<?xml version="1.0" encoding="iso-8859-1"?>
<!-- Uploaded to: SVG Repo, www.svgrepo.com, Generator: SVG Repo Mixer Tools -->
<svg height="800px" width="800px" version="1.1" id="Capa_1" xmlns="http://www.w3.org/2000/svg" xmlns:xlink="http://www.w3.org/1999/xlink" 
	 viewBox="0 0 486.357 486.357" xml:space="preserve">
<g>
	<g>
		<path style="fill:#010002;" d="M465.093,325.805L361.079,295.9c-60.225-28.011-71.312-74.88-73.23-87.39v-86.894
			c0-11.599-4.674-22.093-12.201-29.767l-12.949-46.097c0-15.274-4.251-27.653-19.525-27.653s-19.517,12.388-19.517,27.662
			l-13.176,46.374c-7.381,7.649-11.973,18.013-11.973,29.49v83.659c0,0-3.682,58.404-74.157,90.886l0,0L21.272,325.805
			c0,0-19.85,25.524-21.272,62.387l96.129,10.088l-10.697,50.34c-1.861,8.787,3.739,17.42,12.526,19.281
			c1.138,0.244,2.276,0.358,3.39,0.358c7.511,0,14.258-5.243,15.891-12.876l11.413-53.689l33.49,3.512
			c3.097-18.541,8.763-34.644,16.834-43.285c-1.878,4.641-3.642,10.153-5.235,16.347c-2.081,8.12-3.829,17.444-5.08,27.621
			c-1.276,10.38-2.04,21.589-2.04,33.352h51.576c0-9.868-0.545-19.379-1.496-28.312c-0.423-3.934-0.935-7.706-1.504-11.396
			c-1.398-9.112-3.211-17.411-5.284-24.638c-1.553-5.406-3.235-10.21-4.999-14.282c7.925,7.421,13.689,21.817,17.143,38.92
			c0.797,3.942,1.463,8.007,2.008,12.168l19.127,2.008l18.582-1.951c0.545-4.186,1.219-8.275,2.016-12.225
			c3.251-16.127,8.559-29.872,15.802-37.611c-1.878,4.641-3.642,10.153-5.235,16.347c-1.642,6.397-3.073,13.55-4.219,21.264
			c-0.553,3.723-1.065,7.535-1.471,11.502c-0.91,8.909-1.439,18.379-1.439,28.206h51.576c0-11.73-0.788-22.898-2.105-33.246
			c-1.479-11.665-3.633-22.199-6.186-31.1c-1.553-5.406-3.235-10.21-4.999-14.282c8.795,8.234,14.924,25.077,18.192,44.642
			l31.88-3.349l11.356,53.47c1.626,7.641,8.372,12.876,15.891,12.876c1.122,0,2.252-0.114,3.39-0.358
			c8.787-1.861,14.396-10.494,12.526-19.281l-10.648-50.113l98.258-10.315C484.943,351.329,465.093,325.805,465.093,325.805z"/>
	</g>
</g>
</svg>